{
  "accessors": [
    {
      "bufferView": 2,
      "componentType": 5126,
      "count": 65532,
      "max": [
        24.934967041015625,
        166.61843872070313,
        13.38764762878418
      ],
      "min": [
        -24.7830867767334,
        0.284060001373291,
        -9.855828285217285
      ],
      "type": "VEC3"
    },
    {
      "bufferView": 2,
      "byteOffset": 786384,
      "componentType": 5126,
      "count": 65532,
      "max": [
        0.9999063611030579,
        0.9999573230743408,
        0.9999906420707703
      ],
      "min": [
        -0.9999064207077026,
        -0.9997987151145935,
        -0.999835729598999
      ],
      "type": "VEC3"
    },
    {
      "bufferView": 1,
      "componentType": 5126,
      "count": 65532,
      "max": [
        7.950902938842773,
        9.116239547729492
      ],
      "min": [
        -6.004158020019531,
        -2.143778085708618
      ],
      "type": "VEC2"
    },
    {
      "bufferView": 0,
      "componentType": 5125,
      "count": 99618,
      "type": "SCALAR"
    },
    {
      "bufferView": 2,
      "byteOffset": 1572768,
      "componentType": 5126,
      "count": 65532,
      "max": [
        24.82687759399414,
        152.6919708251953,
        11.837616920471191
      ],
      "min": [
        -24.559181213378906,
        0.28416401147842407,
        -8.472024917602539
      ],
      "type": "VEC3"
    },
    {
      "bufferView": 2,
      "byteOffset": 2359152,
      "componentType": 5126,
      "count": 65532,
      "max": [
        0.9999158978462219,
        0.9998658895492554,
        0.9998868107795715
      ],
      "min": [
        -0.999914824962616,
        -0.999496340751648,
        -0.9999326467514038
      ],
      "type": "VEC3"
    },
    {
      "bufferView": 1,
      "byteOffset": 524256,
      "componentType": 5126,
      "count": 65532,
      "max": [
        2.796739101409912,
        4.623239040374756
      ],
      "min": [
        -6.004158020019531,
        -3.429292917251587
      ],
      "type": "VEC2"
    },
    {
      "bufferView": 0,
      "byteOffset": 398472,
      "componentType": 5125,
      "count": 98298,
      "type": "SCALAR"
    },
    {
      "bufferView": 2,
      "byteOffset": 3145536,
      "componentType": 5126,
      "count": 65532,
      "max": [
        24.92151641845703,
        146.02394104003906,
        12.91897964477539
      ],
      "min": [
        -24.934967041015625,
        0.31472599506378174,
        -8.064401626586914
      ],
      "type": "VEC3"
    },
    {
      "bufferView": 2,
      "byteOffset": 3931920,
      "componentType": 5126,
      "count": 65532,
      "max": [
        0.9999932646751404,
        0.9999980926513672,
        0.9999759793281555
      ],
      "min": [
        -0.9999932646751404,
        -0.9998557567596436,
        -0.9999871850013733
      ],
      "type": "VEC3"
    },
    {
      "bufferView": 1,
      "byteOffset": 1048512,
      "componentType": 5126,
      "count": 65532,
      "max": [
        7.950902938842773,
        4.36745023727417
      ],
      "min": [
        -1.318537950515747,
        -2.143778085708618
      ],
      "type": "VEC2"
    },
    {
      "bufferView": 0,
      "byteOffset": 791664,
      "componentType": 5125,
      "count": 98298,
      "type": "SCALAR"
    },
    {
      "bufferView": 2,
      "byteOffset": 4718304,
      "componentType": 5126,
      "count": 65532,
      "max": [
        24.88861846923828,
        147.95626831054688,
        13.63353157043457
      ],
      "min": [
        -24.793733596801758,
        0.284060001373291,
        -7.61175012588501
      ],
      "type": "VEC3"
    },
    {
      "bufferView": 2,
      "byteOffset": 5504688,
      "componentType": 5126,
      "count": 65532,
      "max": [
        0.9999939799308777,
        0.9990724921226501,
        0.9998330473899841
      ],
      "min": [
        -0.9999939799308777,
        -0.9999905228614807,
        -0.9998886585235596
      ],
      "type": "VEC3"
    },
    {
      "bufferView": 1,
      "byteOffset": 1572768,
      "componentType": 5126,
      "count": 65532,
      "max": [
        7.950902938842773,
        4.407317161560059
      ],
      "min": [
        -5.726415157318115,
        -5.719088077545166
      ],
      "type": "VEC2"
    },
    {
      "bufferView": 0,
      "byteOffset": 1184856,
      "componentType": 5125,
      "count": 98298,
      "type": "SCALAR"
    },
    {
      "bufferView": 2,
      "byteOffset": 6291072,
      "componentType": 5126,
      "count": 65532,
      "max": [
        25.247343063354492,
        174.23782348632813,
        12.91897964477539
      ],
      "min": [
        -25.236698150634766,
        0.4965740144252777,
        -9.744359970092773
      ],
      "type": "VEC3"
    },
    {
      "bufferView": 2,
      "byteOffset": 7077456,
      "componentType": 5126,
      "count": 65532,
      "max": [
        0.9999963641166687,
        0.9999850392341614,
        0.9999760389328003
      ],
      "min": [
        -0.9999963641166687,
        -0.9999905824661255,
        -0.9999108910560608
      ],
      "type": "VEC3"
    },
    {
      "bufferView": 1,
      "byteOffset": 2097024,
      "componentType": 5126,
      "count": 65532,
      "max": [
        16.633195877075195,
        10.792708396911621
      ],
      "min": [
        -1.5268659591674805,
        -1.3759210109710693
      ],
      "type": "VEC2"
    },
    {
      "bufferView": 0,
      "byteOffset": 1578048,
      "componentType": 5125,
      "count": 96648,
      "type": "SCALAR"
    },
    {
      "bufferView": 2,
      "byteOffset": 7863840,
      "componentType": 5126,
      "count": 65532,
      "max": [
        12.727123260498047,
        157.85009765625,
        11.038337707519531
      ],
      "min": [
        -24.808422088623047,
        0.6024109721183777,
        -11.234430313110352
      ],
      "type": "VEC3"
    },
    {
      "bufferView": 2,
      "byteOffset": 8650224,
      "componentType": 5126,
      "count": 65532,
      "max": [
        0.9999581575393677,
        0.9998164772987366,
        0.9999397993087769
      ],
      "min": [
        -0.9999582767486572,
        -0.9998753666877747,
        -0.9998887181282043
      ],
      "type": "VEC3"
    },
    {
      "bufferView": 1,
      "byteOffset": 2621280,
      "componentType": 5126,
      "count": 65532,
      "max": [
        5.072451114654541,
        4.623239040374756
      ],
      "min": [
        -6.004158020019531,
        -5.719088077545166
      ],
      "type": "VEC2"
    },
    {
      "bufferView": 0,
      "byteOffset": 1964640,
      "componentType": 5125,
      "count": 98298,
      "type": "SCALAR"
    },
    {
      "bufferView": 2,
      "byteOffset": 9436608,
      "componentType": 5126,
      "count": 65532,
      "max": [
        24.559589385986328,
        158.2926025390625,
        13.632776260375977
      ],
      "min": [
        -24.830421447753906,
        0.34277498722076416,
        -11.23515510559082
      ],
      "type": "VEC3"
    },
    {
      "bufferView": 2,
      "byteOffset": 10222992,
      "componentType": 5126,
      "count": 65532,
      "max": [
        0.999893844127655,
        0.9996153116226196,
        0.9999338388442993
      ],
      "min": [
        -0.9998939037322998,
        -0.9998356103897095,
        -0.9997497797012329
      ],
      "type": "VEC3"
    },
    {
      "bufferView": 1,
      "byteOffset": 3145536,
      "componentType": 5126,
      "count": 65532,
      "max": [
        1.7874339818954468,
        4.623239040374756
      ],
      "min": [
        -6.004158020019531,
        -1.3489559888839722
      ],
      "type": "VEC2"
    },
    {
      "bufferView": 0,
      "byteOffset": 2357832,
      "componentType": 5125,
      "count": 98298,
      "type": "SCALAR"
    },
    {
      "bufferView": 2,
      "byteOffset": 11009376,
      "componentType": 5126,
      "count": 2608,
      "max": [
        23.911924362182617,
        110.63534545898438,
        0.08066300302743912
      ],
      "min": [
        3.0241758823394775,
        0.6908770203590393,
        -11.23515510559082
      ],
      "type": "VEC3"
    },
    {
      "bufferView": 2,
      "byteOffset": 11040672,
      "componentType": 5126,
      "count": 2608,
      "max": [
        0.9983606934547424,
        0.9982060194015503,
        0.9999396800994873
      ],
      "min": [
        -0.9987043142318726,
        -0.9969215393066406,
        -0.9763695001602173
      ],
      "type": "VEC3"
    },
    {
      "bufferView": 1,
      "byteOffset": 3669792,
      "componentType": 5126,
      "count": 2608,
      "max": [
        1.5807160139083862,
        1.1521660089492798
      ],
      "min": [
        -1.1776390075683594,
        -1.0008200407028198
      ],
      "type": "VEC2"
    },
    {
      "bufferView": 0,
      "byteOffset": 2751024,
      "componentType": 5125,
      "count": 3912,
      "type": "SCALAR"
    }
  ],
  "asset": {
    "extras": {
      "author": "LeoVitalis (https://sketchfab.com/LeoVitalis)",
      "license": "CC-BY-4.0 (http://creativecommons.org/licenses/by/4.0/)",
      "source": "https://sketchfab.com/3d-models/male-skeleton-7ae059d4a29844e78fd2f97978bd886a",
      "title": "Male Skeleton"
    },
    "generator": "Sketchfab-17.15.0",
    "version": "2.0"
  },
  "bufferViews": [
    {
      "buffer": 0,
      "byteLength": 2766672,
      "name": "floatBufferViews",
      "target": 34963
    },
    {
      "buffer": 0,
      "byteLength": 3690656,
      "byteOffset": 2766672,
      "byteStride": 8,
      "name": "floatBufferViews",
      "target": 34962
    },
    {
      "buffer": 0,
      "byteLength": 11071968,
      "byteOffset": 6457328,
      "byteStride": 12,
      "name": "floatBufferViews",
      "target": 34962
    }
  ],
  "buffers": [
    {
      "byteLength": 17529296,
      "uri": "scene.bin"
    }
  ],
  "extensionsUsed": [
    "KHR_materials_specular"
  ],
  "materials": [
    {
      "doubleSided": true,
      "extensions": {
        "KHR_materials_specular": {
          "specularColorFactor": [
            1.0,
            1.0,
            1.0
          ],
          "specularFactor": 0.8
        }
      },
      "name": "openPBR_shader1",
      "pbrMetallicRoughness": {
        "baseColorFactor": [
          0.45,
          0.45,
          0.45,
          1.0
        ],
        "metallicFactor": 0.0,
        "roughnessFactor": 0.65
      }
    }
  ],
  "meshes": [
    {
      "name": "Skeleton_openPBR_shader1_0",
      "primitives": [
        {
          "attributes": {
            "NORMAL": 1,
            "POSITION": 0,
            "TEXCOORD_0": 2
          },
          "indices": 3,
          "material": 0,
          "mode": 4
        }
      ]
    },
    {
      "name": "Skeleton_openPBR_shader1_0",
      "primitives": [
        {
          "attributes": {
            "NORMAL": 5,
            "POSITION": 4,
            "TEXCOORD_0": 6
          },
          "indices": 7,
          "material": 0,
          "mode": 4
        }
      ]
    },
    {
      "name": "Skeleton_openPBR_shader1_0",
      "primitives": [
        {
          "attributes": {
            "NORMAL": 9,
            "POSITION": 8,
            "TEXCOORD_0": 10
          },
          "indices": 11,
          "material": 0,
          "mode": 4
        }
      ]
    },
    {
      "name": "Skeleton_openPBR_shader1_0",
      "primitives": [
        {
          "attributes": {
            "NORMAL": 13,
            "POSITION": 12,
            "TEXCOORD_0": 14
          },
          "indices": 15,
          "material": 0,
          "mode": 4
        }
      ]
    },
    {
      "name": "Skeleton_openPBR_shader1_0",
      "primitives": [
        {
          "attributes": {
            "NORMAL": 17,
            "POSITION": 16,
            "TEXCOORD_0": 18
          },
          "indices": 19,
          "material": 0,
          "mode": 4
        }
      ]
    },
    {
      "name": "Skeleton_openPBR_shader1_0",
      "primitives": [
        {
          "attributes": {
            "NORMAL": 21,
            "POSITION": 20,
            "TEXCOORD_0": 22
          },
          "indices": 23,
          "material": 0,
          "mode": 4
        }
      ]
    },
    {
      "name": "Skeleton_openPBR_shader1_0",
      "primitives": [
        {
          "attributes": {
            "NORMAL": 25,
            "POSITION": 24,
            "TEXCOORD_0": 26
          },
          "indices": 27,
          "material": 0,
          "mode": 4
        }
      ]
    },
    {
      "name": "Skeleton_openPBR_shader1_0",
      "primitives": [
        {
          "attributes": {
            "NORMAL": 29,
            "POSITION": 28,
            "TEXCOORD_0": 30
          },
          "indices": 31,
          "material": 0,
          "mode": 4
        }
      ]
    }
  ],
  "nodes": [
    {
      "children": [
        1
      ],
      "matrix": [
        1.0,
        0.0,
        0.0,
        0.0,
        0.0,
        2.220446049250313e-16,
        -1.0,
        0.0,
        0.0,
        1.0,
        2.220446049250313e-16,
        0.0,
        0.0,
        0.0,
        0.0,
        1.0
      ],
      "name": "Sketchfab_model"
    },
    {
      "children": [
        2
      ],
      "matrix": [
        0.009999999776482582,
        0.0,
        0.0,
        0.0,
        0.0,
        0.0,
        0.009999999776482582,
        0.0,
        0.0,
        -0.009999999776482582,
        0.0,
        0.0,
        0.0,
        0.0,
        0.0,
        1.0
      ],
      "name": "Male Skeleton.fbx"
    },
    {
      "children": [
        3
      ],
      "name": "RootNode"
    },
    {
      "children": [
        4,
        5,
        6,
        7,
        8,
        9,
        10,
        11
      ],
      "name": "Skeleton"
    },
    {
      "mesh": 0,
      "name": "Skeleton_openPBR_shader1_0"
    },
    {
      "mesh": 1,
      "name": "Skeleton_openPBR_shader1_0"
    },
    {
      "mesh": 2,
      "name": "Skeleton_openPBR_shader1_0"
    },
    {
      "mesh": 3,
      "name": "Skeleton_openPBR_shader1_0"
    },
    {
      "mesh": 4,
      "name": "Skeleton_openPBR_shader1_0"
    },
    {
      "mesh": 5,
      "name": "Skeleton_openPBR_shader1_0"
    },
    {
      "mesh": 6,
      "name": "Skeleton_openPBR_shader1_0"
    },
    {
      "mesh": 7,
      "name": "Skeleton_openPBR_shader1_0"
    }
  ],
  "scene": 0,
  "scenes": [
    {
      "name": "Sketchfab_Scene",
      "nodes": [
        0
      ]
    }
  ]
}
